<svg width="24" height="24" viewBox="0 0 24 24" fill="none" xmlns="http://www.w3.org/2000/svg">
<path d="M16.4996 6.7478V17.3278C16.4996 19.4178 14.9696 21.2778 12.8896 21.4778C12.334 21.5333 11.7729 21.4717 11.2425 21.2968C10.7122 21.122 10.2244 20.8379 9.81068 20.4628C9.39697 20.0878 9.06653 19.6301 8.84071 19.1194C8.61488 18.6086 8.49869 18.0562 8.49964 17.4978V5.1378C8.49964 3.8278 9.43964 2.6378 10.7396 2.5078C11.0883 2.47134 11.4407 2.50861 11.774 2.61718C12.1073 2.72576 12.414 2.90321 12.6743 3.13802C12.9346 3.37282 13.1425 3.65974 13.2847 3.98014C13.4269 4.30054 13.5001 4.64726 13.4996 4.9978V15.4978C13.4996 16.0478 13.0496 16.4978 12.4996 16.4978C11.9496 16.4978 11.4996 16.0478 11.4996 15.4978V6.7478C11.4996 6.3378 11.1596 5.9978 10.7496 5.9978C10.3396 5.9978 9.99964 6.3378 9.99964 6.7478V15.3578C9.99964 16.6678 10.9396 17.8578 12.2396 17.9878C12.5883 18.0243 12.9407 17.987 13.274 17.8784C13.6073 17.7698 13.914 17.5924 14.1743 17.3576C14.4346 17.1228 14.6425 16.8359 14.7847 16.5155C14.9269 16.1951 15.0001 15.8483 14.9996 15.4978V5.1678C14.9996 3.0778 13.4696 1.2178 11.3896 1.0178C10.8341 0.96307 10.2733 1.02527 9.74333 1.20039C9.21333 1.37551 8.72586 1.65968 8.31233 2.03459C7.89879 2.40951 7.56834 2.86687 7.34226 3.37722C7.11618 3.88757 6.99947 4.43961 6.99964 4.9978V17.2678C6.99964 20.1378 9.09964 22.7078 11.9596 22.9778C15.2496 23.2778 17.9996 20.7178 17.9996 17.4978V6.7478C17.9996 6.3378 17.6596 5.9978 17.2496 5.9978C16.8396 5.9978 16.4996 6.3378 16.4996 6.7478Z" fill="#333333"/>
</svg>
