<svg width="48" height="48" viewBox="0 0 48 48" fill="none" xmlns="http://www.w3.org/2000/svg">
<rect width="48" height="48" rx="24" fill="#F8F8F8"/>
<g clip-path="url(#clip0_10053_20426)">
<path d="M15.3633 14.0278C15.1398 14.0622 14.6887 14.2255 14.4395 14.3544C14.1 14.5349 13.5371 15.0978 13.3566 15.4372C13.2836 15.579 13.1762 15.8282 13.1203 15.9958L13.0215 16.2966V19.9274C13.0215 23.8591 13.0172 23.7517 13.2578 24.2931C13.5715 24.9892 14.2934 25.6337 14.9637 25.8099L15.1441 25.8571L15.157 26.7509C15.1699 27.7435 15.1957 27.8337 15.4621 28.0013C15.634 28.1087 15.9176 28.1216 16.0852 28.0314C16.1496 27.997 16.6566 27.5114 17.2109 26.9571L18.2207 25.9431H18.4184H18.6203L18.6418 24.9419C18.659 24.0782 18.6719 23.9021 18.7535 23.6271C19.1703 22.2134 20.2188 21.1649 21.6367 20.7353C21.9547 20.6407 21.9848 20.6407 25.0227 20.6235L28.082 20.6106V18.5181C28.082 16.2235 28.0734 16.129 27.8199 15.6005C27.5535 15.0419 27.0938 14.5821 26.5137 14.2942C25.8906 13.9849 26.1484 13.9978 20.5195 14.0064C17.7438 14.0064 15.4234 14.0192 15.3633 14.0278Z" fill="#0F0F0F"/>
<path d="M21.9891 21.9923C21.018 22.2458 20.2531 23.0235 19.9996 24.0032C19.9223 24.3083 19.918 24.506 19.918 27.836C19.918 30.1263 19.9352 31.4325 19.9652 31.6001C19.9867 31.7376 20.0984 32.0384 20.2059 32.2618C20.541 32.9536 21.1426 33.4692 21.916 33.7314L22.2168 33.8302L25.998 33.8431L29.7793 33.856L30.832 34.9001C31.9535 36.0173 32.0008 36.0517 32.3316 35.9786C32.482 35.9485 32.6969 35.781 32.7785 35.6392C32.8129 35.579 32.8387 35.2439 32.8516 34.6509L32.873 33.7528L33.0449 33.7013C33.3328 33.6153 33.7324 33.3919 34.0074 33.1642C34.493 32.7603 34.8625 32.0942 34.957 31.4626C34.9828 31.2864 35 29.7954 35 27.7931C35 24.0204 35.0043 24.0806 34.7035 23.4747C34.4156 22.8946 33.9559 22.4349 33.3973 22.1685C32.8301 21.8978 33.075 21.9064 27.4375 21.9106C22.5219 21.9106 22.2898 21.9149 21.9891 21.9923Z" fill="#0F0F0F"/>
<path d="M27.7832 28.4162C27.747 28.4236 27.7144 28.4433 27.691 28.472C27.6676 28.5006 27.6549 28.5364 27.6549 28.5734V28.9185C27.6549 28.9823 27.6295 29.0435 27.5844 29.0886C27.5393 29.1337 27.4781 29.1591 27.4143 29.1591C27.3504 29.1591 27.2892 29.1337 27.2441 29.0886C27.199 29.0435 27.1736 28.9823 27.1736 28.9185V28.2252C27.1737 28.1643 27.1968 28.1057 27.2383 28.0611C27.2798 28.0166 27.3367 27.9894 27.3974 27.9852C27.6826 27.9653 28.1021 27.8681 28.4425 27.651C28.7747 27.439 29.0184 27.1241 29.0184 26.6478C29.0184 26.189 28.8482 25.8709 28.601 25.66C28.3479 25.4439 27.9956 25.3255 27.6173 25.3107C26.8344 25.2801 26.1046 25.6813 25.9648 26.306C25.9508 26.3682 25.9127 26.4224 25.8588 26.4566C25.8049 26.4908 25.7397 26.5022 25.6774 26.4883C25.6151 26.4743 25.5609 26.4362 25.5267 26.3823C25.4925 26.3284 25.4811 26.2632 25.4951 26.2009C25.6019 25.7238 25.9101 25.3746 26.309 25.146C26.71 24.9161 27.1963 24.8127 27.6363 24.83C28.0963 24.848 28.5603 24.9925 28.9135 25.2939C29.2728 25.6006 29.4997 26.0549 29.4997 26.6478C29.4997 27.3276 29.1355 27.7797 28.7014 28.0567C28.4076 28.2443 28.0757 28.3569 27.7832 28.4162ZM27.0132 30.3622C27.0132 30.2346 27.0639 30.1122 27.1542 30.0219C27.2444 29.9317 27.3668 29.881 27.4945 29.881C27.6221 29.881 27.7445 29.9317 27.8348 30.0219C27.925 30.1122 27.9757 30.2346 27.9757 30.3622C27.9757 30.4898 27.925 30.6123 27.8348 30.7025C27.7445 30.7928 27.6221 30.8435 27.4945 30.8435C27.3668 30.8435 27.2444 30.7928 27.1542 30.7025C27.0639 30.6123 27.0132 30.4898 27.0132 30.3622Z" fill="#F8F8F8" stroke="#F8F8F8" stroke-width="0.320829" stroke-linecap="round" stroke-linejoin="round"/>
</g>
<defs>
<clipPath id="clip0_10053_20426">
<rect width="22" height="22" fill="white" transform="translate(13 14)"/>
</clipPath>
</defs>
</svg>
