<svg width="48" height="48" viewBox="0 0 48 48" fill="none" xmlns="http://www.w3.org/2000/svg">
<rect width="48" height="48" rx="24" fill="#F8F8F8"/>
<path d="M30.7871 36.2279C31.2143 36.1156 31.3594 35.7679 31.4032 34.7329C31.4224 34.3468 31.4443 34.1168 31.4853 33.9525C31.5593 33.6485 31.7893 33.183 32.0247 32.8709C32.3533 32.4328 32.9995 31.8359 33.5034 31.5018L33.6211 31.4251V27.8052V24.1826L33.3172 24.0539C32.5067 23.7117 31.4525 23.4351 30.349 23.2763C29.5358 23.1585 29.01 23.1284 27.7751 23.1257C26.6306 23.1229 26.5922 23.1257 26.3841 23.1859C25.5764 23.4187 24.9849 23.9827 24.7522 24.7385C24.7193 24.8425 24.5359 25.8228 24.3442 26.9153C24.0129 28.8184 23.9992 28.9169 23.9992 29.2702C24.0019 29.5905 24.0129 29.6727 24.0759 29.8863C24.2894 30.5927 24.7851 31.1431 25.4504 31.4087C25.8365 31.5648 25.9241 31.5703 27.5698 31.5703H29.0703L28.9744 31.8386C28.7526 32.4602 28.6541 33.0653 28.6541 33.8156C28.6541 34.3961 28.6842 34.5905 28.8211 34.9327C28.9416 35.2367 29.073 35.4338 29.3194 35.6775C29.5631 35.9212 29.7904 36.0636 30.108 36.1731C30.2805 36.2334 30.6557 36.2635 30.7871 36.2279Z" fill="#0F0F0F"/>
<path d="M37.294 31.964C37.5924 31.8736 37.8553 31.6053 37.9484 31.2959C38.0032 31.1206 38.0032 31.0494 37.9977 27.5719L37.9895 24.026L37.8991 23.8425C37.7896 23.618 37.5733 23.4126 37.3515 23.3223C37.1981 23.2593 37.1762 23.2593 36.2507 23.2593C35.3252 23.2593 35.3033 23.2593 35.15 23.3223C34.9282 23.4126 34.7119 23.618 34.6024 23.8425L34.512 24.026L34.5038 27.5719C34.4983 31.0494 34.4983 31.1206 34.5531 31.2959C34.6489 31.6135 34.909 31.8736 35.2185 31.9667C35.4156 32.0242 37.105 32.0242 37.294 31.964Z" fill="#0F0F0F"/>
<path d="M17.2129 11.7721C16.7857 11.8844 16.6406 12.2321 16.5968 13.2671C16.5776 13.6532 16.5557 13.8832 16.5147 14.0475C16.4407 14.3515 16.2107 14.817 15.9753 15.1291C15.6467 15.5672 15.0005 16.1641 14.4966 16.4982L14.3789 16.5749V20.1948V23.8174L14.6828 23.9461C15.4933 24.2883 16.5475 24.5649 17.651 24.7237C18.4642 24.8415 18.99 24.8716 20.2249 24.8743C21.3694 24.8771 21.4078 24.8743 21.6159 24.8141C22.4236 24.5813 23.0151 24.0173 23.2478 23.2615C23.2807 23.1575 23.4641 22.1772 23.6558 21.0847C23.9871 19.1816 24.0008 19.0831 24.0008 18.7298C23.9981 18.4095 23.9871 18.3273 23.9241 18.1137C23.7106 17.4073 23.2149 16.8569 22.5496 16.5913C22.1635 16.4352 22.0759 16.4297 20.4302 16.4297H18.9297L19.0256 16.1614C19.2474 15.5398 19.3459 14.9347 19.3459 14.1844C19.3459 13.6039 19.3158 13.4095 19.1789 13.0673C19.0584 12.7633 18.927 12.5662 18.6806 12.3225C18.4369 12.0788 18.2096 11.9364 17.892 11.8269C17.7195 11.7666 17.3443 11.7365 17.2129 11.7721Z" fill="#0F0F0F"/>
<path d="M10.706 16.036C10.4076 16.1264 10.1447 16.3947 10.0516 16.7041C9.99684 16.8794 9.99684 16.9506 10.0023 20.4281L10.0105 23.974L10.1009 24.1575C10.2104 24.382 10.4267 24.5874 10.6485 24.6777C10.8019 24.7407 10.8238 24.7407 11.7493 24.7407C12.6748 24.7407 12.6967 24.7407 12.85 24.6777C13.0718 24.5874 13.2881 24.382 13.3976 24.1575L13.488 23.974L13.4962 20.4281C13.5017 16.9506 13.5017 16.8794 13.4469 16.7041C13.3511 16.3865 13.091 16.1264 12.7815 16.0333C12.5844 15.9758 10.895 15.9758 10.706 16.036Z" fill="#0F0F0F"/>
</svg>
