<svg width="48" height="48" viewBox="0 0 48 48" fill="none" xmlns="http://www.w3.org/2000/svg">
<rect width="48" height="48" rx="24" fill="#F8F8F8"/>
<path d="M15.7627 25.0016V34.6016H17.1252H17.6877V31.1028V27.6003L17.9764 27.4578C19.7727 26.5841 21.8014 26.4941 23.6127 27.2141C23.8227 27.2966 24.3514 27.5478 24.7864 27.7728C25.2252 27.9978 25.7502 28.2491 25.9602 28.3316C27.7527 29.0441 29.6427 29.1003 31.4689 28.4966C31.8064 28.3841 32.2489 28.1966 32.7064 27.9641L33.4189 27.6078L33.4302 21.8628L33.4377 16.1178L32.9802 16.3841C31.4164 17.2803 30.3252 17.6141 28.9377 17.6141C28.3002 17.6141 27.7714 17.5466 27.1789 17.3853C26.5677 17.2241 26.1889 17.0666 25.1314 16.5266C24.1452 16.0278 23.6952 15.8478 22.9602 15.6641C21.8202 15.3753 20.5152 15.3603 19.3489 15.6228C18.9177 15.7203 18.3702 15.8928 17.9839 16.0578L17.6877 16.1816V15.7916V15.4016H17.1252H15.7627V25.0016Z" fill="#0F0F0F"/>
</svg>
