<svg width="48" height="48" viewBox="0 0 48 48" fill="none" xmlns="http://www.w3.org/2000/svg">
<rect width="48" height="48" rx="24" fill="#F8F8F8"/>
<path d="M13.3994 15.8003V18.6608H29.132V15.8003H13.3994ZM13.3994 21.5212V24.3817H29.132V21.5212H13.3994ZM37.7135 21.6643C37.5704 21.6643 37.2844 21.8073 37.1414 21.9503L35.7111 23.3806L38.7146 26.3841L40.1449 24.9538C40.4309 24.6678 40.4309 24.0957 40.1449 23.8096L38.2856 21.9503C38.1425 21.8073 37.9995 21.6643 37.7135 21.6643ZM34.996 24.2387L26.2716 32.8201V35.8236H29.2751L37.9995 27.0992L34.996 24.2387ZM13.3994 27.2422V30.1027H23.4111V27.2422H13.3994Z" fill="#0F0F0F"/>
</svg>
